<svg width="15" height="14" viewBox="0 0 15 14" fill="none" xmlns="http://www.w3.org/2000/svg">
<path fill-rule="evenodd" clip-rule="evenodd" d="M1.56586 1.55556C1.13809 1.55556 0.788086 1.20556 0.788086 0.777778C0.788086 0.35 1.13809 0 1.56586 0H14.0103C14.4381 0 14.7881 0.35 14.7881 0.777778C14.7881 1.20556 14.4381 1.55556 14.0103 1.55556H1.56586ZM9.34364 3.11111H1.56586C1.13809 3.11111 0.788086 3.46111 0.788086 3.88889C0.788086 4.31667 1.13809 4.66667 1.56586 4.66667H9.34364C9.77142 4.66667 10.1214 4.31667 10.1214 3.88889C10.1214 3.46111 9.77142 3.11111 9.34364 3.11111ZM9.34364 9.33333H1.56586C1.13809 9.33333 0.788086 9.68333 0.788086 10.1111C0.788086 10.5389 1.13809 10.8889 1.56586 10.8889H9.34364C9.77142 10.8889 10.1214 10.5389 10.1214 10.1111C10.1214 9.68333 9.77142 9.33333 9.34364 9.33333ZM14.0103 7.77778H1.56586C1.13809 7.77778 0.788086 7.42778 0.788086 7C0.788086 6.57222 1.13809 6.22222 1.56586 6.22222H14.0103C14.4381 6.22222 14.7881 6.57222 14.7881 7C14.7881 7.42778 14.4381 7.77778 14.0103 7.77778ZM1.56586 14H14.0103C14.4381 14 14.7881 13.65 14.7881 13.2222C14.7881 12.7944 14.4381 12.4444 14.0103 12.4444H1.56586C1.13809 12.4444 0.788086 12.7944 0.788086 13.2222C0.788086 13.65 1.13809 14 1.56586 14Z" fill="#212B36"/>
</svg>
