<svg width="15" height="14" viewBox="0 0 15 14" fill="none" xmlns="http://www.w3.org/2000/svg">
<path d="M1.56543 1.55566C1.13785 1.55543 0.788086 1.20498 0.788086 0.777343C0.788323 0.349907 1.13799 0.000235792 1.56543 -6.79124e-07L14.0107 4.0888e-07C14.4382 0.000237019 14.7879 0.349908 14.7881 0.777344C14.7881 1.20498 14.4383 1.55543 14.0107 1.55566L1.56543 1.55566ZM6.23242 4.66699C5.80469 4.66693 5.45508 4.31641 5.45508 3.88867C5.4552 3.46103 5.80477 3.11139 6.23242 3.11133L14.0107 3.11133C14.4383 3.11157 14.788 3.46114 14.7881 3.88867C14.7881 4.31631 14.4383 4.66676 14.0107 4.66699L6.23242 4.66699ZM1.56543 7.77734C1.13785 7.77711 0.788086 7.42763 0.788086 7C0.788086 6.57237 1.13785 6.22289 1.56543 6.22266L14.0107 6.22266C14.4383 6.22289 14.7881 6.57237 14.7881 7C14.7881 7.42763 14.4383 7.77711 14.0107 7.77734L1.56543 7.77734ZM6.23242 10.8887C5.80477 10.8886 5.4552 10.539 5.45508 10.1113C5.45508 9.68359 5.80469 9.33307 6.23242 9.33301L14.0107 9.33301C14.4383 9.33324 14.7881 9.6837 14.7881 10.1113C14.788 10.5389 14.4382 10.8884 14.0107 10.8887L6.23242 10.8887ZM1.56543 14C1.13799 13.9998 0.788322 13.6501 0.788085 13.2227C0.788085 12.795 1.13785 12.4446 1.56543 12.4443L14.0107 12.4443C14.4383 12.4446 14.7881 12.795 14.7881 13.2227C14.7878 13.6501 14.4382 13.9998 14.0107 14L1.56543 14Z" fill="#212B36"/>
</svg>
