<?xml version="1.0" encoding="utf-8"?>
<svg xmlns="http://www.w3.org/2000/svg" viewBox="412.319 254.952 14 14" width="14px" height="14px"><path fill-rule="evenodd" clip-rule="evenodd" d="M 413.097 256.508 C 412.669 256.508 412.319 256.158 412.319 255.73 C 412.319 255.302 412.669 254.952 413.097 254.952 L 425.541 254.952 C 425.969 254.952 426.319 255.302 426.319 255.73 C 426.319 256.158 425.969 256.508 425.541 256.508 L 413.097 256.508 Z M 423.029 258.063 L 415.461 258.063 C 415.033 258.063 414.683 258.413 414.683 258.841 C 414.683 259.269 415.033 259.619 415.461 259.619 L 423.029 259.619 C 423.456 259.619 423.806 259.269 423.806 258.841 C 423.806 258.413 423.456 258.063 423.029 258.063 Z M 423.177 264.285 L 415.663 264.285 C 415.235 264.285 414.885 264.635 414.885 265.063 C 414.885 265.491 415.235 265.841 415.663 265.841 L 423.177 265.841 C 423.604 265.841 423.954 265.491 423.954 265.063 C 423.954 264.635 423.604 264.285 423.177 264.285 Z M 425.541 262.73 L 413.097 262.73 C 412.669 262.73 412.319 262.38 412.319 261.952 C 412.319 261.524 412.669 261.174 413.097 261.174 L 425.541 261.174 C 425.969 261.174 426.319 261.524 426.319 261.952 C 426.319 262.38 425.969 262.73 425.541 262.73 Z M 413.097 268.952 L 425.541 268.952 C 425.969 268.952 426.319 268.602 426.319 268.174 C 426.319 267.746 425.969 267.396 425.541 267.396 L 413.097 267.396 C 412.669 267.396 412.319 267.746 412.319 268.174 C 412.319 268.602 412.669 268.952 413.097 268.952 Z" fill="#212B36" id="object-0"/></svg>