<svg width="9" height="10" viewBox="0 0 9 10" fill="none" xmlns="http://www.w3.org/2000/svg">
<path fill-rule="evenodd" clip-rule="evenodd" d="M7.18798 4.85C7.90983 4.37143 8.41587 3.58571 8.41587 2.85714C8.41587 1.24286 7.11357 0 5.43917 0H1.53226C1.12296 0 0.788086 0.321429 0.788086 0.714286V9.28571C0.788086 9.67857 1.12296 10 1.53226 10H5.83359C7.37403 10 8.78052 8.79286 8.78796 7.30714C8.7954 6.21429 8.15541 5.27857 7.18798 4.85ZM3.02061 1.78571H5.25313C5.8708 1.78571 6.36939 2.26429 6.36939 2.85714C6.36939 3.45 5.8708 3.92857 5.25313 3.92857H3.02061V1.78571ZM3.02061 8.21429H5.62522C6.24288 8.21429 6.74148 7.73571 6.74148 7.14286C6.74148 6.55 6.24288 6.07143 5.62522 6.07143H3.02061V8.21429Z" fill="#212B36"/>
</svg>
