<svg width="15" height="12" viewBox="0 0 15 12" fill="none" xmlns="http://www.w3.org/2000/svg">
<path fill-rule="evenodd" clip-rule="evenodd" d="M0.788086 1.6C0.788086 0.991333 1.29511 0.5 1.92322 0.5C2.55133 0.5 3.05836 0.991333 3.05836 1.6C3.05836 2.20867 2.55133 2.7 1.92322 2.7C1.29511 2.7 0.788086 2.20867 0.788086 1.6ZM0.788086 6C0.788086 5.39133 1.29511 4.9 1.92322 4.9C2.55133 4.9 3.05836 5.39133 3.05836 6C3.05836 6.60867 2.55133 7.1 1.92322 7.1C1.29511 7.1 0.788086 6.60867 0.788086 6ZM1.92322 9.3C1.29511 9.3 0.788086 9.79867 0.788086 10.4C0.788086 11.0013 1.30268 11.5 1.92322 11.5C2.54376 11.5 3.05836 11.0013 3.05836 10.4C3.05836 9.79867 2.55133 9.3 1.92322 9.3ZM14.0313 11.1333H4.95025C4.53403 11.1333 4.19349 10.8033 4.19349 10.4C4.19349 9.99667 4.53403 9.66667 4.95025 9.66667H14.0313C14.4475 9.66667 14.7881 9.99667 14.7881 10.4C14.7881 10.8033 14.4475 11.1333 14.0313 11.1333ZM4.95025 6.73333H14.0313C14.4475 6.73333 14.7881 6.40333 14.7881 6C14.7881 5.59667 14.4475 5.26667 14.0313 5.26667H4.95025C4.53403 5.26667 4.19349 5.59667 4.19349 6C4.19349 6.40333 4.53403 6.73333 4.95025 6.73333ZM4.95025 2.33333C4.53403 2.33333 4.19349 2.00333 4.19349 1.6C4.19349 1.19667 4.53403 0.866667 4.95025 0.866667H14.0313C14.4475 0.866667 14.7881 1.19667 14.7881 1.6C14.7881 2.00333 14.4475 2.33333 14.0313 2.33333H4.95025Z" fill="#212B36"/>
</svg>
