<svg width="14" height="12" viewBox="0 0 14 12" fill="none" xmlns="http://www.w3.org/2000/svg">
<path fill-rule="evenodd" clip-rule="evenodd" d="M13.7881 1.15588C13.7881 1.79547 13.2927 2.31177 12.679 2.31177H9.50701L8.4349 4.90865L6.88957 3.29812L7.29624 2.31177H5.94315L3.72498 0H12.679C13.2927 0 13.7881 0.516295 13.7881 1.15588ZM2.04656 0.43153L11.8952 10.6958C12.1836 10.9963 12.1836 11.4818 11.8879 11.7746C11.5995 12.0751 11.1337 12.0751 10.8453 11.7746L7.18533 7.96019L6.29066 10.141C6.128 10.534 5.7583 10.7882 5.35164 10.7882C4.61964 10.7882 4.12425 10.01 4.41261 9.30101L5.63261 6.34195L1.00402 1.51806C0.817788 1.32397 0.745056 1.04108 0.813222 0.775946C0.881387 0.510814 1.08009 0.303723 1.33449 0.232681C1.58889 0.161639 1.86033 0.23744 2.04656 0.43153Z" fill="#212B36"/>
</svg>
