<svg width="16" height="11" viewBox="0 0 16 11" fill="none" xmlns="http://www.w3.org/2000/svg">
<path fill-rule="evenodd" clip-rule="evenodd" d="M11.6114 0.293563L15.1964 5.00653C15.4217 5.29825 15.4186 5.71614 15.1889 6.00411L11.4389 10.7171C11.2961 10.8966 11.0845 11.0002 10.8614 10.9998C10.6871 11.0024 10.5174 10.9413 10.3814 10.827C10.228 10.6939 10.1315 10.5022 10.1132 10.2945C10.0949 10.0867 10.1563 9.8798 10.2839 9.71949L13.6439 5.50139L10.4414 1.28329C10.3156 1.12101 10.2567 0.912893 10.2778 0.705018C10.2989 0.497144 10.3983 0.306659 10.5539 0.175739C10.7088 0.0439559 10.9075 -0.0177042 11.106 0.00441012C11.3045 0.0265244 11.4864 0.130589 11.6114 0.293563ZM4.79242 0.00486464C4.99081 -0.0142928 5.18833 0.0500133 5.34139 0.183594C5.49477 0.316773 5.59125 0.508396 5.60955 0.716181C5.62784 0.923966 5.56644 1.13083 5.43889 1.29114L2.0789 5.50139L5.32639 9.71949C5.5089 9.95511 5.54553 10.2797 5.42048 10.5534C5.29544 10.8271 5.03108 11.0009 4.74139 10.9998C4.51445 11.0007 4.29937 10.8938 4.15639 10.7092L0.533897 5.99625C0.306409 5.7064 0.306409 5.28852 0.533897 4.99867L4.28389 0.285708C4.41106 0.125069 4.59402 0.0240221 4.79242 0.00486464Z" fill="#212B36"/>
</svg>
