<svg width="15" height="14" viewBox="0 0 15 14" fill="none" xmlns="http://www.w3.org/2000/svg">
<path fill-rule="evenodd" clip-rule="evenodd" d="M1.14106 1.55556C0.713281 1.55556 0.363281 1.20556 0.363281 0.777778C0.363281 0.35 0.713281 0 1.14106 0H13.5855C14.0133 0 14.3633 0.35 14.3633 0.777778C14.3633 1.20556 14.0133 1.55556 13.5855 1.55556H1.14106ZM2.8055 9.44222L0.635503 7.27222C0.487726 7.12444 0.487726 6.87556 0.643281 6.72778L2.81328 4.55778C3.05439 4.30889 3.47439 4.48 3.47439 4.83V9.17C3.47439 9.52 3.05439 9.69111 2.8055 9.44222ZM13.5855 10.8889H7.36328C6.9355 10.8889 6.5855 10.5389 6.5855 10.1111C6.5855 9.68333 6.9355 9.33333 7.36328 9.33333H13.5855C14.0133 9.33333 14.3633 9.68333 14.3633 10.1111C14.3633 10.5389 14.0133 10.8889 13.5855 10.8889ZM13.5855 14C14.0133 14 14.3633 13.65 14.3633 13.2222C14.3633 12.7944 14.0133 12.4444 13.5855 12.4444H1.14106C0.713281 12.4444 0.363281 12.7944 0.363281 13.2222C0.363281 13.65 0.713281 14 1.14106 14H13.5855ZM7.36328 4.66667H13.5855C14.0133 4.66667 14.3633 4.31667 14.3633 3.88889C14.3633 3.46111 14.0133 3.11111 13.5855 3.11111H7.36328C6.9355 3.11111 6.5855 3.46111 6.5855 3.88889C6.5855 4.31667 6.9355 4.66667 7.36328 4.66667ZM13.5855 7.77778H7.36328C6.9355 7.77778 6.5855 7.42778 6.5855 7C6.5855 6.57222 6.9355 6.22222 7.36328 6.22222H13.5855C14.0133 6.22222 14.3633 6.57222 14.3633 7C14.3633 7.42778 14.0133 7.77778 13.5855 7.77778Z" fill="#212B36"/>
</svg>
