<svg width="19" height="16" viewBox="0 0 19 16" fill="none" xmlns="http://www.w3.org/2000/svg">
<path opacity="0.3" d="M1.86328 12.75H16.8633C17.6883 12.75 18.3633 13.425 18.3633 14.25C18.3633 15.075 17.6883 15.75 16.8633 15.75H1.86328C1.03828 15.75 0.363281 15.075 0.363281 14.25C0.363281 13.425 1.03828 12.75 1.86328 12.75Z" fill="#212B36"/>
<path fill-rule="evenodd" clip-rule="evenodd" d="M4.90816 9.435L8.33566 0.6975C8.50066 0.2775 8.91316 0 9.36316 0C9.81316 0 10.2182 0.2775 10.3907 0.6975L13.8182 9.435C14.0207 9.945 13.6382 10.5 13.0907 10.5C12.7607 10.5 12.4682 10.2975 12.3557 9.99L11.7032 8.25H7.01566L6.37066 9.99C6.25066 10.2975 5.95816 10.5 5.63566 10.5C5.08066 10.5 4.70566 9.945 4.90816 9.435ZM9.36316 2.0025L7.57816 6.75H11.1482L9.36316 2.0025Z" fill="#212B36"/>
</svg>
