<svg width="15" height="14" viewBox="0 0 15 14" fill="none" xmlns="http://www.w3.org/2000/svg">
<path fill-rule="evenodd" clip-rule="evenodd" d="M12.4548 0H3.12142C1.83275 0 0.788086 1.04467 0.788086 2.33333V11.6667C0.788086 12.9553 1.83275 14 3.12142 14H12.4548C13.7434 14 14.7881 12.9553 14.7881 11.6667V2.33333C14.7881 1.04467 13.7434 0 12.4548 0ZM4.67697 3.11111C5.32131 3.11111 5.84364 3.63345 5.84364 4.27778C5.84364 4.92211 5.32131 5.44444 4.67697 5.44444C4.03264 5.44444 3.51031 4.92211 3.51031 4.27778C3.51031 3.63345 4.03264 3.11111 4.67697 3.11111ZM12.4548 12.4444C12.9205 12.4072 13.2683 12.0003 13.2325 11.5344V10.6244L9.73253 7.14C9.52764 6.9531 9.21409 6.9531 9.0092 7.14L3.12142 12.4444H12.4548Z" fill="#212B36"/>
</svg>
