<svg width="15" height="14" viewBox="0 0 15 14" fill="none" xmlns="http://www.w3.org/2000/svg">
<path fill-rule="evenodd" clip-rule="evenodd" d="M1.14107 1.55556C0.713288 1.55556 0.363288 1.20556 0.363288 0.777778C0.363288 0.35 0.713288 0 1.14107 0H13.5855C14.0133 0 14.3633 0.35 14.3633 0.777778C14.3633 1.20556 14.0133 1.55556 13.5855 1.55556H1.14107ZM0.363288 9.17778V4.83C0.362366 4.673 0.455937 4.53085 0.600506 4.46962C0.745075 4.40839 0.91228 4.4401 1.0244 4.55L3.1944 6.72778C3.34995 6.88333 3.34995 7.12444 3.1944 7.28L1.0244 9.45C0.783288 9.69889 0.363288 9.52778 0.363288 9.17778ZM1.14107 14C0.713288 14 0.363288 13.65 0.363288 13.2222C0.363288 12.7944 0.713288 12.4444 1.14107 12.4444H13.5855C14.0133 12.4444 14.3633 12.7944 14.3633 13.2222C14.3633 13.65 14.0133 14 13.5855 14H1.14107ZM7.36328 10.8889H13.5855C14.0133 10.8889 14.3633 10.5389 14.3633 10.1111C14.3633 9.68333 14.0133 9.33333 13.5855 9.33333H7.36328C6.9355 9.33333 6.5855 9.68333 6.5855 10.1111C6.5855 10.5389 6.9355 10.8889 7.36328 10.8889ZM7.36328 4.66667H13.5855C14.0133 4.66667 14.3633 4.31667 14.3633 3.88889C14.3633 3.46111 14.0133 3.11111 13.5855 3.11111H7.36328C6.9355 3.11111 6.5855 3.46111 6.5855 3.88889C6.5855 4.31667 6.9355 4.66667 7.36328 4.66667ZM13.5855 7.77778H7.36328C6.9355 7.77778 6.5855 7.42778 6.5855 7C6.5855 6.57222 6.9355 6.22222 7.36328 6.22222H13.5855C14.0133 6.22222 14.3633 6.57222 14.3633 7C14.3633 7.42778 14.0133 7.77778 13.5855 7.77778Z" fill="#212B36"/>
</svg>
