<svg width="10" height="10" viewBox="0 0 10 10" fill="none" xmlns="http://www.w3.org/2000/svg">
<path d="M3.78809 1.07143C3.78809 1.66429 4.29059 2.14286 4.91309 2.14286H5.44559L2.88059 7.85714H1.91309C1.29059 7.85714 0.788086 8.33571 0.788086 8.92857C0.788086 9.52143 1.29059 10 1.91309 10H5.66309C6.28559 10 6.78809 9.52143 6.78809 8.92857C6.78809 8.33571 6.28559 7.85714 5.66309 7.85714H5.13059L7.69559 2.14286H8.66309C9.28559 2.14286 9.78809 1.66429 9.78809 1.07143C9.78809 0.478571 9.28559 0 8.66309 0H4.91309C4.29059 0 3.78809 0.478571 3.78809 1.07143Z" fill="#212B36"/>
</svg>
