<svg width="16" height="16" viewBox="0 0 16 16" fill="none" xmlns="http://www.w3.org/2000/svg">
<path fill-rule="evenodd" clip-rule="evenodd" d="M14.0226 1.4106C12.1513 0.0238621 9.54218 0.242229 7.92711 1.92075L7.11737 2.74599C6.93021 2.88214 6.8095 3.0913 6.7852 3.32155C6.7609 3.55181 6.8353 3.78159 6.98992 3.95384C7.1307 4.09587 7.32233 4.17576 7.52224 4.17576C7.72216 4.17576 7.91379 4.09587 8.05457 3.95384L9.02925 2.97106C10.139 1.81544 11.942 1.68588 13.2054 2.67097C13.8649 3.21082 14.2638 4.00591 14.3024 4.85766C14.3411 5.7094 14.0158 6.53738 13.4078 7.13478L12.3432 8.2076C12.2012 8.34846 12.1214 8.54022 12.1214 8.74025C12.1214 8.94029 12.2012 9.13204 12.3432 9.27291C12.4839 9.41494 12.6756 9.49482 12.8755 9.49482C13.0754 9.49482 13.267 9.41494 13.4078 9.27291L14.4725 8.2076C15.3887 7.28203 15.8642 6.00762 15.7781 4.70767C15.6921 3.40772 15.0529 2.20717 14.0226 1.4106ZM8.48943 12.0487L7.52974 13.0015C6.41437 14.1515 4.61401 14.2807 3.34611 13.3016C2.69152 12.7619 2.29596 11.97 2.25738 11.1222C2.2188 10.2743 2.54081 9.4498 3.14367 8.85279L4.20833 7.77997C4.35026 7.6391 4.4301 7.44735 4.4301 7.24731C4.4301 7.04728 4.35026 6.85552 4.20833 6.71466C4.06755 6.57263 3.87591 6.49274 3.676 6.49274C3.47609 6.49274 3.28445 6.57263 3.14367 6.71466L2.19148 7.67494C0.532526 9.28243 0.317831 11.87 1.68915 13.7292C2.48522 14.7626 3.68664 15.4039 4.98775 15.4901C6.28887 15.5762 7.56425 15.0988 8.48943 14.1794L9.55408 13.114C9.84807 12.8199 9.84807 12.3429 9.55408 12.0487C9.26008 11.7545 8.78342 11.7545 8.48943 12.0487ZM6.25559 8.9675L9.25559 5.9675C9.54968 5.67341 10.0265 5.67341 10.3206 5.9675C10.6147 6.26159 10.6147 6.73841 10.3206 7.0325L7.32059 10.0325C7.17976 10.1745 6.98806 10.2543 6.78809 10.2543C6.58811 10.2543 6.39641 10.1745 6.25559 10.0325C6.1136 9.89167 6.03374 9.69998 6.03374 9.5C6.03374 9.30002 6.1136 9.10833 6.25559 8.9675Z" fill="#212B36"/>
</svg>
