<svg width="10" height="12" viewBox="0 0 10 12" fill="none" xmlns="http://www.w3.org/2000/svg">
<path d="M8.23828 0H1.53328C0.888281 0 0.363281 0.525 0.363281 1.17C0.363281 1.38 0.453281 1.5825 0.603281 1.725L5.23828 6L0.603281 10.275C0.453281 10.4175 0.363281 10.62 0.363281 10.83C0.363281 11.475 0.888281 12 1.53328 12H8.23828C8.86078 12 9.36328 11.4975 9.36328 10.875C9.36328 10.2525 8.86078 9.75 8.23828 9.75H4.11328L6.80578 7.0575C7.39078 6.4725 7.39078 5.52 6.80578 4.935L4.11328 2.25H8.23828C8.86078 2.25 9.36328 1.7475 9.36328 1.125C9.36328 0.5025 8.86078 0 8.23828 0Z" fill="#212B36"/>
</svg>
