<svg width="15" height="12" viewBox="0 0 15 12" fill="none" xmlns="http://www.w3.org/2000/svg">
<path fill-rule="evenodd" clip-rule="evenodd" d="M1.15651 0.75H1.52493V2.625C1.52493 2.835 1.68703 3 1.89335 3C2.09966 3 2.26177 2.835 2.26177 2.625V0.375C2.26177 0.165 2.09966 0 1.89335 0H1.15651C0.950191 0 0.788086 0.165 0.788086 0.375C0.788086 0.585 0.950191 0.75 1.15651 0.75ZM14.0512 2.25H5.20914C4.80388 2.25 4.4723 1.9125 4.4723 1.5C4.4723 1.0875 4.80388 0.75 5.20914 0.75H14.0512C14.4565 0.75 14.7881 1.0875 14.7881 1.5C14.7881 1.9125 14.4565 2.25 14.0512 2.25ZM5.20914 9.75H14.0512C14.4565 9.75 14.7881 10.0875 14.7881 10.5C14.7881 10.9125 14.4565 11.25 14.0512 11.25H5.20914C4.80388 11.25 4.4723 10.9125 4.4723 10.5C4.4723 10.0875 4.80388 9.75 5.20914 9.75ZM14.0512 5.25H5.20914C4.80388 5.25 4.4723 5.5875 4.4723 6C4.4723 6.4125 4.80388 6.75 5.20914 6.75H14.0512C14.4565 6.75 14.7881 6.4125 14.7881 6C14.7881 5.5875 14.4565 5.25 14.0512 5.25ZM2.63019 9C2.83651 9 2.99861 9.165 2.99861 9.375V11.625C2.99861 11.835 2.83651 12 2.63019 12H1.15651C0.950191 12 0.788086 11.835 0.788086 11.625C0.788086 11.415 0.950191 11.25 1.15651 11.25H2.26177V10.875H1.89335C1.68703 10.875 1.52493 10.71 1.52493 10.5C1.52493 10.29 1.68703 10.125 1.89335 10.125H2.26177V9.75H1.15651C0.950191 9.75 0.788086 9.585 0.788086 9.375C0.788086 9.165 0.950191 9 1.15651 9H2.63019ZM0.788086 4.875C0.788086 4.665 0.950191 4.5 1.15651 4.5H2.63019C2.83651 4.5 2.99861 4.665 2.99861 4.875V5.04C2.99839 5.12821 2.96701 5.21339 2.91019 5.28L1.6723 6.75H2.63019C2.83651 6.75 2.99861 6.915 2.99861 7.125C2.99861 7.335 2.83651 7.5 2.63019 7.5H1.15651C0.950191 7.5 0.788086 7.335 0.788086 7.125V6.96C0.788307 6.87179 0.819691 6.78661 0.876507 6.72L2.1144 5.25H1.15651C0.950191 5.25 0.788086 5.085 0.788086 4.875Z" fill="#212B36"/>
</svg>
