<svg width="13" height="8" viewBox="0 0 13 8" fill="none" xmlns="http://www.w3.org/2000/svg">
<path fill-rule="evenodd" clip-rule="evenodd" d="M3.64078 7.408C3.47578 7.768 3.12328 8 2.74078 8C1.99078 8 1.50328 7.16 1.84078 6.448L2.61328 4.8H1.11328C0.700781 4.8 0.363281 4.44 0.363281 4V0.8C0.363281 0.36 0.700781 0 1.11328 0H4.11328C4.52578 0 4.86328 0.36 4.86328 0.8V4.424C4.86328 4.672 4.81078 4.912 4.70578 5.136L3.64078 7.408ZM11.1408 7.408C10.9758 7.768 10.6233 8 10.2408 8C9.49078 8 9.00328 7.16 9.34078 6.448L10.1133 4.8H8.61328C8.20078 4.8 7.86328 4.44 7.86328 4V0.8C7.86328 0.36 8.20078 0 8.61328 0H11.6133C12.0258 0 12.3633 0.36 12.3633 0.8V4.424C12.3633 4.672 12.3108 4.912 12.2058 5.136L11.1408 7.408Z" fill="#212B36"/>
</svg>
