<svg width="19" height="18" viewBox="0 0 19 18" fill="none" xmlns="http://www.w3.org/2000/svg">
<path fill-rule="evenodd" clip-rule="evenodd" d="M12.7835 6.39903L6.60347 0.219032C6.41457 0.0301283 6.13924 -0.0436472 5.88119 0.0254965C5.62314 0.0946402 5.42158 0.296199 5.35244 0.554247C5.28329 0.812294 5.35707 1.08763 5.54597 1.27653L6.80597 2.53653L2.94347 6.39903C2.73094 6.60898 2.61133 6.89529 2.61133 7.19403C2.61133 7.49278 2.73094 7.77908 2.94347 7.98903L7.06847 12.114C7.28597 12.3315 7.57847 12.444 7.86347 12.444C8.14847 12.444 8.44097 12.3315 8.65847 12.114L12.7835 7.98903C13.226 7.55403 13.226 6.84153 12.7835 6.39903ZM4.27097 7.19403L7.86347 3.60153L11.456 7.19403H4.27097ZM13.1135 10.944C13.1135 9.94653 14.6135 8.31903 14.6135 8.31903C14.6135 8.31903 16.1135 9.94653 16.1135 10.944C16.1135 11.769 15.4385 12.444 14.6135 12.444C13.7885 12.444 13.1135 11.769 13.1135 10.944Z" fill="#212B36"/>
<path opacity="0.3" d="M1.86328 14.6943H16.8633C17.6883 14.6943 18.3633 15.3693 18.3633 16.1943C18.3633 17.0193 17.6883 17.6943 16.8633 17.6943H1.86328C1.03828 17.6943 0.363281 17.0193 0.363281 16.1943C0.363281 15.3693 1.03828 14.6943 1.86328 14.6943Z" fill="#212B36"/>
</svg>
