<svg width="15" height="12" viewBox="0 0 15 12" fill="none" xmlns="http://www.w3.org/2000/svg">
<path fill-rule="evenodd" clip-rule="evenodd" d="M2.34364 1.6C2.34364 2.20867 2.86475 2.7 3.51031 2.7H6.23253V4.9H9.34364V2.7H12.0659C12.7114 2.7 13.2325 2.20867 13.2325 1.6C13.2325 0.991333 12.7114 0.5 12.0659 0.5H3.51031C2.86475 0.5 2.34364 0.991333 2.34364 1.6ZM7.78809 11.5C8.64364 11.5 9.34364 10.84 9.34364 10.0333V9.3H6.23253V10.0333C6.23253 10.84 6.93253 11.5 7.78809 11.5ZM14.0103 7.83333H1.56586C1.13809 7.83333 0.788086 7.50333 0.788086 7.1C0.788086 6.69667 1.13809 6.36667 1.56586 6.36667H14.0103C14.4381 6.36667 14.7881 6.69667 14.7881 7.1C14.7881 7.50333 14.4381 7.83333 14.0103 7.83333Z" fill="#212B36"/>
</svg>
