<svg width="13" height="12" viewBox="0 0 13 12" fill="none" xmlns="http://www.w3.org/2000/svg">
<path fill-rule="evenodd" clip-rule="evenodd" d="M0.733302 1.29L3.11856 5.0475L0.496258 9.21C0.140692 9.7725 0.540704 10.5 1.19258 10.5C1.48147 10.5 1.74815 10.35 1.8963 10.11L4.17044 6.4425H4.25933L6.53348 10.11C6.68904 10.35 6.95571 10.5 7.2372 10.5C7.88907 10.5 8.28908 9.765 7.93352 9.2025L5.30381 5.04L7.69647 1.29C8.05204 0.735 7.65203 0 7.00016 0C6.71126 0 6.44458 0.15 6.28902 0.405L4.25933 3.7425H4.17044L2.12594 0.3975C1.96847 0.145628 1.69025 -0.00205704 1.39607 0.0100771C1.1019 0.0222112 0.836465 0.192321 0.699757 0.456327C0.563048 0.720333 0.575836 1.03813 0.733302 1.29ZM11.9929 11.25C12.2003 11.25 12.3633 11.415 12.3633 11.625C12.3633 11.835 12.2003 12 11.9929 12H10.141C9.73357 12 9.40023 11.6625 9.40023 11.25V10.5C9.40023 10.0875 9.73357 9.75 10.141 9.75H11.6225V9H9.77061C9.5632 9 9.40023 8.835 9.40023 8.625C9.40023 8.415 9.5632 8.25 9.77061 8.25H11.6225C12.0299 8.25 12.3633 8.5875 12.3633 9V9.75C12.3633 10.1625 12.0299 10.5 11.6225 10.5H10.141V11.25H11.9929Z" fill="#212B36"/>
</svg>
