<svg width="13" height="12" viewBox="0 0 13 12" fill="none" xmlns="http://www.w3.org/2000/svg">
<path fill-rule="evenodd" clip-rule="evenodd" d="M11.9929 3C12.2003 3 12.3633 3.165 12.3633 3.375C12.3633 3.585 12.2003 3.75 11.9929 3.75H10.141C9.73357 3.75 9.40023 3.4125 9.40023 3V2.25C9.40023 1.8375 9.73357 1.5 10.141 1.5H11.6225V0.75H9.77061C9.5632 0.75 9.40023 0.585 9.40023 0.375C9.40023 0.165 9.5632 0 9.77061 0H11.6225C12.0299 0 12.3633 0.3375 12.3633 0.75V1.5C12.3633 1.9125 12.0299 2.25 11.6225 2.25H10.141V3H11.9929ZM0.733302 2.79L3.11115 6.5475L0.496258 10.71C0.140692 11.2725 0.540704 12 1.19258 12C1.48147 12 1.74074 11.85 1.8963 11.61L4.17044 7.9425H4.25933L6.53348 11.61C6.68904 11.85 6.95571 12 7.2372 12C7.88907 12 8.28908 11.265 7.92611 10.7025L5.2964 6.54L7.68907 2.79C8.04463 2.235 7.64462 1.5 6.99275 1.5C6.70385 1.5 6.43718 1.65 6.28902 1.905L4.25933 5.2425H4.17044L2.12594 1.8975C1.96847 1.64563 1.69025 1.49794 1.39607 1.51008C1.1019 1.52221 0.836465 1.69232 0.699757 1.95633C0.563048 2.22033 0.575836 2.53813 0.733302 2.79Z" fill="#212B36"/>
</svg>
