<svg width="11" height="14" viewBox="0 0 11 14" fill="none" xmlns="http://www.w3.org/2000/svg">
<path fill-rule="evenodd" clip-rule="evenodd" d="M10.0738 6.05889C10.0738 8.43111 8.51666 10.5467 6.35237 10.85C3.73809 11.2156 1.50237 8.99889 1.50237 6.22222V0.972222C1.50237 0.435279 1.90212 0 2.39523 0C2.88834 0 3.28809 0.435279 3.28809 0.972222V6.22222C3.28714 7.04405 3.62778 7.8222 4.21469 8.3389C4.80159 8.8556 5.57171 9.05534 6.30951 8.88222C7.48094 8.62556 8.28809 7.44333 8.28809 6.14444V0.972222C8.28809 0.435279 8.68783 0 9.18094 0C9.67405 0 10.0738 0.435279 10.0738 0.972222V6.05889ZM1.50237 14C1.10951 14 0.788086 13.65 0.788086 13.2222C0.788086 12.7944 1.10951 12.4444 1.50237 12.4444H10.0738C10.4667 12.4444 10.7881 12.7944 10.7881 13.2222C10.7881 13.65 10.4667 14 10.0738 14H1.50237Z" fill="#212B36"/>
</svg>
