<svg width="13" height="14" viewBox="0 0 13 14" fill="none" xmlns="http://www.w3.org/2000/svg">
<path fill-rule="evenodd" clip-rule="evenodd" d="M11.2881 0.777778V1.55556H9.78809V0.777778C9.78809 0.35 9.45059 0 9.03809 0H4.53809C4.12559 0 3.78809 0.35 3.78809 0.777778V1.55556H2.28809V0.777778C2.28809 0.35 1.95059 0 1.53809 0C1.12559 0 0.788086 0.35 0.788086 0.777778V13.2222C0.788086 13.65 1.12559 14 1.53809 14C1.95059 14 2.28809 13.65 2.28809 13.2222V12.4444H3.78809V13.2222C3.78809 13.65 4.12559 14 4.53809 14H9.03809C9.45059 14 9.78809 13.65 9.78809 13.2222V12.4444H11.2881V13.2222C11.2881 13.65 11.6256 14 12.0381 14C12.4506 14 12.7881 13.65 12.7881 13.2222V0.777778C12.7881 0.35 12.4506 0 12.0381 0C11.6256 0 11.2881 0.35 11.2881 0.777778ZM3.78809 10.8889H2.28809V9.33333H3.78809V10.8889ZM2.28809 7.77778H3.78809V6.22222H2.28809V7.77778ZM3.78809 4.66667H2.28809V3.11111H3.78809V4.66667ZM9.78809 10.8889H11.2881V9.33333H9.78809V10.8889ZM11.2881 7.77778H9.78809V6.22222H11.2881V7.77778ZM9.78809 4.66667H11.2881V3.11111H9.78809V4.66667Z" fill="#212B36"/>
</svg>
